<?xml version="1.0" encoding="utf-8"?>
<!-- Generator: Adobe Illustrator 26.3.1, SVG Export Plug-In . SVG Version: 6.00 Build 0)  -->
<svg version="1.1" id="Layer_1" xmlns="http://www.w3.org/2000/svg" xmlns:xlink="http://www.w3.org/1999/xlink" x="0px" y="0px"
	 viewBox="0 0 100 100" style="enable-background:new 0 0 100 100;" xml:space="preserve">
<style type="text/css">
	.st0{fill:#FFFFFF;}
	.st1{fill:#5CE1E6;}
</style>
<path class="st0" d="M49.9,13c-7.3,0-14.4,2.2-20.4,6.2S18.8,29,16,35.7c-2.8,6.7-3.5,14.1-2.1,21.2c1.4,7.1,4.9,13.7,10,18.8
	c5.1,5.1,11.7,8.6,18.8,10c7.1,1.4,14.5,0.7,21.2-2.1c6.7-2.8,12.4-7.5,16.5-13.5c4-6,6.2-13.1,6.2-20.4H68.3
	c0,3.6-1.1,7.2-3.1,10.2c-2,3-4.9,5.4-8.2,6.8c-3.4,1.4-7,1.8-10.6,1c-3.6-0.7-6.8-2.5-9.4-5c-2.6-2.6-4.3-5.8-5-9.4
	c-0.7-3.6-0.3-7.3,1-10.6c1.4-3.4,3.7-6.2,6.8-8.2c3-2,6.6-3.1,10.2-3.1V13z"/>
<path class="st1" d="M49.9,13c-4.8,0-9.6,0.9-14,2.8c-4.5,1.8-8.5,4.5-11.9,8c-3.4,3.4-6.1,7.5-8,11.9c-1.8,4.5-2.8,9.2-2.8,14h18.4
	c0-2.4,0.5-4.8,1.4-7c0.9-2.2,2.3-4.2,4-6c1.7-1.7,3.7-3.1,6-4c2.2-0.9,4.6-1.4,7-1.4V13z"/>
<circle class="st1" cx="49.9" cy="49.7" r="11.5"/>
<path class="st0" d="M61.4,49.7c0-1.5-0.3-3-0.9-4.4c-0.6-1.4-1.4-2.7-2.5-3.7c-1.1-1.1-2.3-1.9-3.7-2.5c-1.4-0.6-2.9-0.9-4.4-0.9
	c-1.5,0-3,0.3-4.4,0.9c-1.4,0.6-2.7,1.4-3.7,2.5c-1.1,1.1-1.9,2.3-2.5,3.7c-0.6,1.4-0.9,2.9-0.9,4.4h11.5H61.4z"/>
</svg>
