<?xml version="1.0" encoding="utf-8"?>
<!-- Generator: Adobe Illustrator 26.3.1, SVG Export Plug-In . SVG Version: 6.00 Build 0)  -->
<svg version="1.1" id="Layer_1" xmlns="http://www.w3.org/2000/svg" xmlns:xlink="http://www.w3.org/1999/xlink" x="0px" y="0px"
	 viewBox="0 0 100 100" style="enable-background:new 0 0 100 100;" xml:space="preserve">
<style type="text/css">
	.st0{fill:#FFFFFF;}
	.st1{fill:#5CE1E6;}
</style>
<path class="st0" d="M75.9,23.8c-5.1-5.1-11.7-8.6-18.8-10S42.6,13,35.9,15.8c-6.7,2.8-12.4,7.5-16.5,13.5c-4,6-6.2,13.1-6.2,20.4
	c0,7.3,2.2,14.4,6.2,20.4c4,6,9.8,10.7,16.5,13.5c6.7,2.8,14.1,3.5,21.2,2.1c7.1-1.4,13.7-4.9,18.8-10l-13-13
	c-2.6,2.6-5.8,4.3-9.4,5c-3.6,0.7-7.3,0.3-10.6-1c-3.4-1.4-6.2-3.7-8.2-6.8c-2-3-3.1-6.6-3.1-10.2c0-3.6,1.1-7.2,3.1-10.2
	c2-3,4.9-5.4,8.2-6.8c3.4-1.4,7-1.8,10.6-1c3.6,0.7,6.8,2.5,9.4,5L75.9,23.8z"/>
<path class="st0" d="M75.9,23.8c-3.4-3.4-7.5-6.1-11.9-8c-4.5-1.8-9.2-2.8-14-2.8c-4.8,0-9.6,0.9-14,2.8c-4.5,1.8-8.5,4.5-11.9,8
	l13,13c1.7-1.7,3.7-3.1,6-4c2.2-0.9,4.6-1.4,7-1.4c2.4,0,4.8,0.5,7,1.4c2.2,0.9,4.2,2.3,6,4L75.9,23.8z"/>
<circle class="st1" cx="49.9" cy="49.7" r="11.5"/>
<path class="st1" d="M58,57.8c1.1-1.1,1.9-2.3,2.5-3.7c0.6-1.4,0.9-2.9,0.9-4.4c0-1.5-0.3-3-0.9-4.4c-0.6-1.4-1.4-2.7-2.5-3.7
	c-1.1-1.1-2.3-1.9-3.7-2.5s-2.9-0.9-4.4-0.9c-1.5,0-3,0.3-4.4,0.9c-1.4,0.6-2.7,1.4-3.7,2.5l8.1,8.1L58,57.8z"/>
</svg>
