<?xml version="1.0" encoding="utf-8"?>
<!-- Generator: Adobe Illustrator 26.3.1, SVG Export Plug-In . SVG Version: 6.00 Build 0)  -->
<svg version="1.1" id="Layer_1" xmlns="http://www.w3.org/2000/svg" xmlns:xlink="http://www.w3.org/1999/xlink" x="0px" y="0px"
	 viewBox="0 0 266 73" style="enable-background:new 0 0 266 73;" xml:space="preserve">
<style type="text/css">
	.st0{display:none;stroke:#FFFFFF;stroke-miterlimit:10;}
	.st1{display:none;fill:#5CE1E6;}
	.st2{fill:#FFFFFF;}
	.st3{fill:#5CE1E6;}
</style>
<rect x="0" y="0" class="st0" width="266" height="72.1"/>
<path class="st1" d="M180.6,43.1c1.7,0.4,3.1,1.2,4.1,2.5c1.1,1.3,1.6,2.8,1.6,4.5c0,2.4-0.8,4.3-2.4,5.7c-1.6,1.4-3.9,2.1-7,2.1
	h-12.3V29.3h12.1c2.9,0,5.1,0.6,6.7,1.9c1.6,1.3,2.4,3.1,2.4,5.4c0,1.8-0.5,3.2-1.4,4.4C183.3,42,182.1,42.8,180.6,43.1z
	 M170.3,41.3h5.2c1.4,0,2.5-0.3,3.2-0.9c0.8-0.6,1.1-1.6,1.1-2.8c0-1.2-0.4-2.1-1.1-2.8c-0.7-0.6-1.9-1-3.4-1h-5.1V41.3z
	 M175.7,53.2c1.5,0,2.7-0.3,3.5-1c0.8-0.7,1.2-1.7,1.2-2.9c0-1.3-0.4-2.2-1.3-2.9c-0.8-0.7-2-1.1-3.5-1.1h-5.4v7.9H175.7z
	 M199.1,35.1c1.9,0,3.5,0.4,4.9,1.3c1.4,0.9,2.3,2.1,2.9,3.6v-4.7h5.7v22.5h-5.7v-4.7c-0.6,1.5-1.5,2.7-2.9,3.7
	c-1.4,0.9-3,1.3-4.9,1.3c-1.9,0-3.6-0.5-5.1-1.4s-2.7-2.2-3.6-4c-0.8-1.8-1.3-3.8-1.3-6.2c0-2.4,0.4-4.4,1.3-6.1
	c0.9-1.8,2.1-3.1,3.6-4C195.5,35.6,197.2,35.1,199.1,35.1z M200.9,40.1c-1.8,0-3.2,0.6-4.3,1.7s-1.6,2.8-1.6,4.8
	c0,2,0.5,3.6,1.6,4.8c1.1,1.1,2.5,1.7,4.3,1.7c1.7,0,3.2-0.6,4.3-1.7c1.1-1.2,1.7-2.8,1.7-4.7c0-2-0.6-3.6-1.7-4.7
	C204,40.7,202.6,40.1,200.9,40.1z M231.1,35.1c2.6,0,4.7,0.9,6.2,2.6c1.5,1.7,2.3,4.1,2.3,7.2v13.1H234V45.5c0-1.8-0.5-3.2-1.4-4.1
	c-0.9-1-2.2-1.5-3.8-1.5c-1.6,0-2.9,0.5-3.9,1.6c-1,1.1-1.5,2.6-1.5,4.5v11.9h-5.7V35.4h5.7v4.5c0.6-1.5,1.6-2.7,2.9-3.5
	C227.7,35.5,229.3,35.1,231.1,35.1z M257.8,57.9l-7.4-9.8v9.8h-5.7v-30h5.7v16.9l7.4-9.3h6.8l-9.5,11.2l9.7,11.3H257.8z"/>
<path class="st2" d="M61.6,10.6c-5-5-11.5-8.5-18.5-9.9S28.9,0,22.3,2.7C15.7,5.5,10,10.1,6.1,16C2.1,22,0,28.9,0,36.1
	c0,7.1,2.1,14.1,6.1,20c4,5.9,9.6,10.6,16.2,13.3c6.6,2.7,13.8,3.4,20.8,2.1c7-1.4,13.4-4.8,18.5-9.9L48.8,48.8
	c-2.5,2.5-5.7,4.2-9.2,4.9c-3.5,0.7-7.1,0.3-10.4-1c-3.3-1.4-6.1-3.7-8.1-6.6c-2-3-3-6.5-3-10c0-3.6,1.1-7.1,3-10
	c2-3,4.8-5.3,8.1-6.6c3.3-1.4,6.9-1.7,10.4-1c3.5,0.7,6.7,2.4,9.2,4.9L61.6,10.6z"/>
<path class="st3" d="M61.6,10.6c-3.3-3.3-7.3-6-11.7-7.8C45.5,0.9,40.8,0,36.1,0c-4.7,0-9.4,0.9-13.8,2.7c-4.4,1.8-8.4,4.5-11.7,7.8
	l12.8,12.8c1.7-1.7,3.7-3,5.9-3.9c2.2-0.9,4.5-1.4,6.9-1.4c2.4,0,4.7,0.5,6.9,1.4c2.2,0.9,4.2,2.2,5.9,3.9L61.6,10.6z"/>
<circle class="st3" cx="36.1" cy="36.1" r="11.3"/>
<path class="st2" d="M44,44c1-1,1.9-2.3,2.4-3.7c0.6-1.4,0.9-2.8,0.9-4.3c0-1.5-0.3-2.9-0.9-4.3c-0.6-1.4-1.4-2.6-2.4-3.7
	c-1-1-2.3-1.9-3.7-2.4c-1.4-0.6-2.8-0.9-4.3-0.9c-1.5,0-2.9,0.3-4.3,0.9c-1.4,0.6-2.6,1.4-3.7,2.4l8,8L44,44z"/>
<g>
	<path class="st2" d="M80.1,24.2c6.1,0,11,3.3,12.8,8.9h-6.3c-1.3-2.6-3.6-3.9-6.6-3.9c-4.8,0-8.2,3.5-8.2,9c0,5.5,3.4,9,8.2,9
		c2.9,0,5.3-1.3,6.6-4h6.3c-1.8,5.6-6.8,8.9-12.8,8.9c-7.9,0-13.9-5.8-13.9-13.9C66.2,30,72.2,24.2,80.1,24.2z"/>
	<path class="st2" d="M107.3,52.2c-6.3,0-11-4.4-11-11.2c0-6.9,4.9-11.2,11.2-11.2c6.3,0,11.2,4.3,11.2,11.2
		C118.6,47.8,113.6,52.2,107.3,52.2z M107.3,47.4c2.9,0,5.7-2.1,5.7-6.4c0-4.3-2.7-6.4-5.6-6.4c-2.9,0-5.5,2.1-5.5,6.4
		C101.8,45.3,104.3,47.4,107.3,47.4z"/>
	<path class="st2" d="M132.3,52.2c-6.3,0-11-4.4-11-11.2c0-6.9,4.9-11.2,11.2-11.2c6.3,0,11.2,4.3,11.2,11.2
		C143.6,47.8,138.6,52.2,132.3,52.2z M132.3,47.4c2.9,0,5.7-2.1,5.7-6.4c0-4.3-2.7-6.4-5.6-6.4s-5.5,2.1-5.5,6.4
		C126.8,45.3,129.3,47.4,132.3,47.4z"/>
	<path class="st2" d="M147.6,22.9h5.5v29h-5.5V22.9z"/>
	<path class="st3" d="M170.3,51.9h-11.8V24.5h11.3c5.7,0,8.9,3,8.9,7.1c0,3.3-2,5.4-4.7,6.3c3.1,0.5,5.3,3.4,5.3,6.6
		C179.3,48.8,176,51.9,170.3,51.9z M169,28.9h-5v6.9h5c2.6,0,4.1-1.2,4.1-3.4C173.1,30.2,171.6,28.9,169,28.9z M169.4,40H164v7.4
		h5.5c2.7,0,4.2-1.3,4.2-3.6C173.8,41.4,172.1,40,169.4,40z"/>
	<path class="st3" d="M192.2,29.8c3.5,0,5.9,1.6,7.2,3.4v-3.1h5.5v21.7h-5.5v-3.2c-1.3,1.9-3.8,3.5-7.2,3.5c-5.5,0-9.9-4.5-9.9-11.3
		C182.3,34.2,186.7,29.8,192.2,29.8z M193.6,34.6c-2.9,0-5.7,2.2-5.7,6.3c0,4.1,2.8,6.5,5.7,6.5c3,0,5.8-2.3,5.8-6.4
		C199.4,36.9,196.6,34.6,193.6,34.6z"/>
	<path class="st3" d="M225.5,39.9c0-3.5-1.9-5.4-4.8-5.4c-3,0-4.9,1.9-4.9,5.4v12h-5.5V30.2h5.5v2.7c1.4-1.8,3.8-3,6.5-3
		c5.1,0,8.7,3.3,8.7,9.3v12.7h-5.5V39.9z"/>
	<path class="st3" d="M236.1,22.9h5.5v16.5l7.3-9.2h7.1L246.5,41l9.6,10.8H249l-7.4-9.2v9.2h-5.5V22.9z"/>
</g>
</svg>
