<?xml version="1.0" encoding="utf-8"?>
<!-- Generator: Adobe Illustrator 26.3.1, SVG Export Plug-In . SVG Version: 6.00 Build 0)  -->
<svg version="1.1" id="Layer_1" xmlns="http://www.w3.org/2000/svg" xmlns:xlink="http://www.w3.org/1999/xlink" x="0px" y="0px"
	 viewBox="0 0 266 73" style="enable-background:new 0 0 266 73;" xml:space="preserve">
<style type="text/css">
	.st0{display:none;fill:#FFFFFF;}
	.st1{display:none;fill:#5CE1E6;}
	.st2{fill:#FFFFFF;}
	.st3{fill:#5CE1E6;}
</style>
<path class="st0" d="M105.1-37.9v28.6h-5.8v-12.5H87.1v12.5h-5.7v-28.6h5.7v11.6h12.3v-11.6H105.1z M120.7-32c2.2,0,4.2,0.5,5.9,1.4
	c1.8,0.9,3.1,2.3,4.1,4c1,1.7,1.5,3.8,1.5,6.1c0,2.4-0.5,4.4-1.5,6.1c-1,1.7-2.4,3.1-4.1,4c-1.7,0.9-3.7,1.4-5.9,1.4
	c-2.2,0-4.2-0.5-5.9-1.4c-1.7-0.9-3.1-2.3-4.1-4c-1-1.7-1.5-3.8-1.5-6.1c0-2.4,0.5-4.4,1.5-6.1c1-1.8,2.4-3.1,4.1-4
	C116.5-31.5,118.5-32,120.7-32z M120.7-27c-1.6,0-2.9,0.6-4.1,1.7c-1.1,1.1-1.7,2.7-1.7,4.9c0,2.1,0.6,3.8,1.7,4.9
	c1.1,1.1,2.5,1.7,4.1,1.7c1.6,0,2.9-0.6,4.1-1.7c1.1-1.1,1.7-2.8,1.7-4.9c0-2.1-0.6-3.8-1.7-4.9C123.6-26.5,122.3-27,120.7-27z
	 M146.6-32c2.2,0,4.2,0.5,5.9,1.4c1.8,0.9,3.1,2.3,4.1,4c1,1.7,1.5,3.8,1.5,6.1c0,2.4-0.5,4.4-1.5,6.1c-1,1.7-2.4,3.1-4.1,4
	c-1.7,0.9-3.7,1.4-5.9,1.4c-2.2,0-4.2-0.5-5.9-1.4c-1.7-0.9-3.1-2.3-4.1-4c-1-1.7-1.5-3.8-1.5-6.1c0-2.4,0.5-4.4,1.5-6.1
	c1-1.8,2.4-3.1,4.1-4C142.4-31.5,144.4-32,146.6-32z M146.6-27c-1.6,0-2.9,0.6-4.1,1.7c-1.1,1.1-1.7,2.7-1.7,4.9
	c0,2.1,0.6,3.8,1.7,4.9c1.1,1.1,2.5,1.7,4.1,1.7c1.6,0,2.9-0.6,4.1-1.7c1.1-1.1,1.7-2.8,1.7-4.9c0-2.1-0.6-3.8-1.7-4.9
	C149.6-26.5,148.2-27,146.6-27z"/>
<path class="st1" d="M178.2-24c1.7,0.4,3.1,1.2,4.1,2.5c1.1,1.3,1.6,2.8,1.6,4.5c0,2.4-0.8,4.3-2.4,5.7c-1.6,1.4-3.9,2.1-7,2.1
	h-12.3v-28.6h12.1c2.9,0,5.1,0.6,6.7,1.9c1.6,1.3,2.4,3.1,2.4,5.4c0,1.8-0.5,3.2-1.4,4.4C180.9-25.1,179.7-24.4,178.2-24z
	 M167.9-25.9h5.2c1.4,0,2.5-0.3,3.2-0.9c0.8-0.6,1.1-1.6,1.1-2.8c0-1.2-0.4-2.1-1.1-2.8c-0.7-0.6-1.9-1-3.4-1h-5.1V-25.9z
	 M173.3-13.9c1.5,0,2.7-0.3,3.5-1c0.8-0.7,1.2-1.7,1.2-2.9c0-1.3-0.4-2.2-1.3-2.9c-0.8-0.7-2-1.1-3.5-1.1h-5.4v7.9H173.3z M196.7-32
	c1.9,0,3.5,0.4,4.9,1.3c1.4,0.9,2.3,2.1,2.9,3.6v-4.7h5.7v22.5h-5.7v-4.7c-0.6,1.5-1.5,2.7-2.9,3.7c-1.4,0.9-3,1.3-4.9,1.3
	c-1.9,0-3.6-0.5-5.1-1.4s-2.7-2.2-3.6-4c-0.8-1.8-1.3-3.8-1.3-6.2c0-2.4,0.4-4.4,1.3-6.1c0.9-1.8,2.1-3.1,3.6-4
	C193.1-31.5,194.8-32,196.7-32z M198.5-27c-1.8,0-3.2,0.6-4.3,1.7s-1.6,2.8-1.6,4.8c0,2,0.5,3.6,1.6,4.8c1.1,1.1,2.5,1.7,4.3,1.7
	c1.7,0,3.2-0.6,4.3-1.7c1.1-1.2,1.7-2.8,1.7-4.7c0-2-0.6-3.6-1.7-4.7C201.6-26.4,200.2-27,198.5-27z M228.7-32
	c2.6,0,4.7,0.9,6.2,2.6c1.5,1.7,2.3,4.1,2.3,7.2v13.1h-5.7v-12.4c0-1.8-0.5-3.2-1.4-4.1c-0.9-1-2.2-1.5-3.8-1.5
	c-1.6,0-2.9,0.5-3.9,1.6c-1,1.1-1.5,2.6-1.5,4.5v11.9h-5.7v-22.5h5.7v4.5c0.6-1.5,1.6-2.7,2.9-3.5C225.3-31.6,226.9-32,228.7-32z
	 M255.4-9.2l-7.4-9.8v9.8h-5.7v-30h5.7v16.9l7.4-9.3h6.8l-9.5,11.2l9.7,11.3H255.4z"/>
<path class="st2" d="M61.6,10.6c-5-5-11.5-8.5-18.5-9.9S28.9,0,22.3,2.7C15.7,5.5,10,10.1,6.1,16C2.1,22,0,28.9,0,36.1
	c0,7.1,2.1,14.1,6.1,20c4,5.9,9.6,10.6,16.2,13.3c6.6,2.7,13.8,3.4,20.8,2.1c7-1.4,13.4-4.8,18.5-9.9L48.8,48.8
	c-2.5,2.5-5.7,4.2-9.2,4.9c-3.5,0.7-7.1,0.3-10.4-1c-3.3-1.4-6.1-3.7-8.1-6.6c-2-3-3-6.5-3-10c0-3.6,1.1-7.1,3-10
	c2-3,4.8-5.3,8.1-6.6c3.3-1.4,6.9-1.7,10.4-1c3.5,0.7,6.7,2.4,9.2,4.9L61.6,10.6z"/>
<path class="st2" d="M61.6,10.6c-3.3-3.3-7.3-6-11.7-7.8C45.5,0.9,40.8,0,36.1,0c-4.7,0-9.4,0.9-13.8,2.7c-4.4,1.8-8.4,4.5-11.7,7.8
	l12.8,12.8c1.7-1.7,3.7-3,5.9-3.9c2.2-0.9,4.5-1.4,6.9-1.4c2.4,0,4.7,0.5,6.9,1.4c2.2,0.9,4.2,2.2,5.9,3.9L61.6,10.6z"/>
<circle class="st3" cx="36.1" cy="36.1" r="11.3"/>
<path class="st3" d="M44,44c1-1,1.9-2.3,2.4-3.7c0.6-1.4,0.9-2.8,0.9-4.3c0-1.5-0.3-2.9-0.9-4.3c-0.6-1.4-1.4-2.6-2.4-3.7
	c-1-1-2.3-1.9-3.7-2.4c-1.4-0.6-2.8-0.9-4.3-0.9c-1.5,0-2.9,0.3-4.3,0.9c-1.4,0.6-2.6,1.4-3.7,2.4l8,8L44,44z"/>
<g>
	<path class="st2" d="M85.2,29.7c6.2,0,11.2,3.3,13.1,9h-6.4c-1.3-2.7-3.7-4-6.7-4c-4.9,0-8.3,3.6-8.3,9.2c0,5.6,3.5,9.2,8.3,9.2
		c3,0,5.4-1.3,6.7-4h6.4c-1.9,5.7-6.9,9-13.1,9c-8,0-14.1-5.9-14.1-14.2C71,35.6,77.2,29.7,85.2,29.7z"/>
	<path class="st2" d="M112.9,58.3c-6.4,0-11.2-4.5-11.2-11.4c0-7,5-11.4,11.4-11.4s11.4,4.4,11.4,11.4
		C124.4,53.8,119.3,58.3,112.9,58.3z M112.9,53.4c3,0,5.8-2.2,5.8-6.5c0-4.4-2.8-6.5-5.7-6.5c-3,0-5.6,2.1-5.6,6.5
		C107.3,51.2,109.9,53.4,112.9,53.4z"/>
	<path class="st2" d="M138.3,58.3c-6.4,0-11.2-4.5-11.2-11.4c0-7,5-11.4,11.4-11.4c6.4,0,11.4,4.4,11.4,11.4
		C149.9,53.8,144.8,58.3,138.3,58.3z M138.3,53.4c3,0,5.8-2.2,5.8-6.5c0-4.4-2.8-6.5-5.7-6.5s-5.6,2.1-5.6,6.5
		C132.8,51.2,135.3,53.4,138.3,53.4z"/>
	<path class="st2" d="M154,28.4h5.6v29.5H154V28.4z"/>
	<path class="st3" d="M177.1,57.9h-12V30h11.5c5.8,0,9.1,3,9.1,7.2c0,3.4-2,5.5-4.8,6.4c3.2,0.6,5.4,3.5,5.4,6.7
		C186.3,54.8,182.9,57.9,177.1,57.9z M175.8,34.6h-5.1v7h5.1c2.6,0,4.2-1.2,4.2-3.5C179.9,35.8,178.4,34.6,175.8,34.6z M176.2,45.9
		h-5.5v7.5h5.6c2.7,0,4.3-1.3,4.3-3.7C180.6,47.3,178.9,45.9,176.2,45.9z"/>
	<path class="st3" d="M199.4,35.4c3.6,0,6,1.7,7.3,3.5v-3.2h5.6v22.1h-5.6v-3.2c-1.3,1.9-3.8,3.6-7.3,3.6c-5.6,0-10.1-4.6-10.1-11.5
		S193.8,35.4,199.4,35.4z M200.8,40.3c-3,0-5.8,2.2-5.8,6.4s2.8,6.6,5.8,6.6c3.1,0,5.9-2.3,5.9-6.5S203.9,40.3,200.8,40.3z"/>
	<path class="st3" d="M233.3,45.7c0-3.6-2-5.5-4.9-5.5c-3,0-5,1.9-5,5.5v12.2h-5.6V35.8h5.6v2.8c1.4-1.9,3.8-3.1,6.7-3.1
		c5.1,0,8.8,3.4,8.8,9.5v13h-5.6V45.7z"/>
	<path class="st3" d="M244.2,28.4h5.6v16.8l7.4-9.4h7.3l-9.7,11.1l9.8,11h-7.3l-7.5-9.4v9.4h-5.6V28.4z"/>
</g>
</svg>
